<svg width="14" height="8" viewBox="0 0 14 8" fill="none" xmlns="http://www.w3.org/2000/svg">
<path d="M13.0664 1.9168L7.46644 7.53346C7.39977 7.60013 7.32755 7.64724 7.24977 7.6748C7.17199 7.7028 7.08866 7.7168 6.99977 7.7168C6.91088 7.7168 6.82755 7.7028 6.74977 7.6748C6.67199 7.64724 6.59977 7.60013 6.5331 7.53346L0.916438 1.9168C0.760883 1.76124 0.683105 1.5668 0.683105 1.33346C0.683105 1.10013 0.766438 0.900131 0.933105 0.733464C1.09977 0.566798 1.29422 0.483464 1.51644 0.483464C1.73866 0.483464 1.93311 0.566798 2.09977 0.733464L6.99977 5.63346L11.8998 0.733464C12.0553 0.577908 12.2469 0.50013 12.4744 0.50013C12.7024 0.50013 12.8998 0.583464 13.0664 0.75013C13.2331 0.916797 13.3164 1.11124 13.3164 1.33346C13.3164 1.55569 13.2331 1.75013 13.0664 1.9168Z" fill="black"/>
</svg>
