<svg width="37" height="32" viewBox="0 0 37 32" fill="none" xmlns="http://www.w3.org/2000/svg">
<path d="M0.510498 29.7495V2.24953C0.510498 1.7162 0.737302 1.30786 1.19091 1.02453C1.64452 0.741195 2.12333 0.699529 2.62734 0.899529L35.4887 14.5995C36.0935 14.8662 36.3959 15.3329 36.3959 15.9995C36.3959 16.6662 36.0935 17.1329 35.4887 17.3995L2.62734 31.0995C2.12333 31.2995 1.64452 31.2579 1.19091 30.9745C0.737302 30.6912 0.510498 30.2829 0.510498 29.7495ZM3.53455 27.3495L30.9526 15.9995L3.53455 4.49953V12.8995L15.7316 15.9995L3.53455 18.9995V27.3495ZM3.53455 15.9995V4.49953V27.3495V15.9995Z" fill="#2658A6"/>
</svg>
