<svg width="34" height="34" viewBox="0 0 34 34" fill="none" xmlns="http://www.w3.org/2000/svg">
<path d="M27.5 12.5L25.625 8.375L21.5 6.5L25.625 4.625L27.5 0.5L29.375 4.625L33.5 6.5L29.375 8.375L27.5 12.5ZM27.5 33.5L25.625 29.375L21.5 27.5L25.625 25.625L27.5 21.5L29.375 25.625L33.5 27.5L29.375 29.375L27.5 33.5ZM12.5 29L8.75 20.75L0.5 17L8.75 13.25L12.5 5L16.25 13.25L24.5 17L16.25 20.75L12.5 29ZM12.5 21.725L14 18.5L17.225 17L14 15.5L12.5 12.275L11 15.5L7.775 17L11 18.5L12.5 21.725Z" fill="#2658A6"/>
</svg>
