<svg width="21" height="20" viewBox="0 0 21 20" fill="none" xmlns="http://www.w3.org/2000/svg">
<path d="M5 19.9999V6.99993L11 1.04993C11.25 0.79993 11.5457 0.65393 11.887 0.61193C12.229 0.570597 12.5583 0.633263 12.875 0.79993C13.1917 0.966597 13.425 1.19993 13.575 1.49993C13.725 1.79993 13.7583 2.10826 13.675 2.42493L12.55 6.99993H19C19.5333 6.99993 20 7.19993 20.4 7.59993C20.8 7.99993 21 8.4666 21 8.99993V10.9999C21 11.1166 20.9833 11.2416 20.95 11.3749C20.9167 11.5083 20.8833 11.6333 20.85 11.7499L17.85 18.7999C17.7 19.1333 17.45 19.4166 17.1 19.6499C16.75 19.8833 16.3833 19.9999 16 19.9999H5ZM7 7.84993V17.9999H16L19 10.9999V8.99993H10L11.35 3.49993L7 7.84993ZM2 19.9999C1.45 19.9999 0.979333 19.8043 0.588 19.4129C0.196 19.0209 0 18.5499 0 17.9999V8.99993C0 8.44993 0.196 7.97893 0.588 7.58693C0.979333 7.1956 1.45 6.99993 2 6.99993H5V8.99993H2V17.9999H5V19.9999H2ZM7 17.9999V7.84993V17.9999Z" fill="#2C2E3D"/>
</svg>
